<?xml version="1.0" encoding="UTF-8" standalone="no"?>
<!DOCTYPE svg PUBLIC "-//W3C//DTD SVG 1.1//EN"
 "http://www.w3.org/Graphics/SVG/1.1/DTD/svg11.dtd">
<!-- Generated by graphviz version 2.43.0 (0)
 -->
<!-- Title: %3 Pages: 1 -->
<svg width="720pt" height="633pt"
 viewBox="0.00 0.00 720.00 632.72" xmlns="http://www.w3.org/2000/svg" xmlns:xlink="http://www.w3.org/1999/xlink">
<g id="graph0" class="graph" transform="scale(1.01 1.01) rotate(0) translate(4 635.75)">
<title>%3</title>
<polygon fill="white" stroke="transparent" points="-4,4 -4,-635.75 724,-635.75 724,4 -4,4"/>
<!-- 0 -->
<g id="node1" class="node">
<title>0</title>
<ellipse fill="#c0c0c0" stroke="black" cx="149.24" cy="-72.51" rx="37.09" ry="18"/>
<text text-anchor="middle" x="149.24" y="-68.81" font-family="Times,serif" font-size="14.00">0.648</text>
</g>
<!-- 1 -->
<g id="node2" class="node">
<title>1</title>
<ellipse fill="#c04040" stroke="black" cx="149.24" cy="-559.23" rx="37.09" ry="18"/>
<text text-anchor="middle" x="149.24" y="-555.53" font-family="Times,serif" font-size="14.00">0.860</text>
</g>
<!-- 0&#45;&gt;1 -->
<g id="edge1" class="edge">
<title>0&#45;&gt;1</title>
<path fill="none" stroke="red" d="M146.47,-90.71C141.38,-164.43 141.18,-441.29 145.87,-530.99"/>
<polygon fill="red" stroke="red" points="142.39,-531.44 146.48,-541.21 149.38,-531.02 142.39,-531.44"/>
<text text-anchor="middle" x="121.99" y="-319.69" font-family="Times,serif" font-size="14.00">0.178</text>
</g>
<!-- 2 -->
<g id="node3" class="node">
<title>2</title>
<ellipse fill="#c0a0a0" stroke="black" cx="570.76" cy="-315.87" rx="37.09" ry="18"/>
<text text-anchor="middle" x="570.76" y="-312.17" font-family="Times,serif" font-size="14.00">0.835</text>
</g>
<!-- 0&#45;&gt;2 -->
<g id="edge2" class="edge">
<title>0&#45;&gt;2</title>
<path fill="none" stroke="red" d="M169.42,-87.86C235.82,-131.36 447.97,-254.12 534.01,-299.19"/>
<polygon fill="red" stroke="red" points="532.41,-302.31 542.9,-303.8 535.64,-296.09 532.41,-302.31"/>
<text text-anchor="middle" x="334" y="-202.61" font-family="Times,serif" font-size="14.00">0.174</text>
</g>
<!-- 1&#45;&gt;0 -->
<g id="edge3" class="edge">
<title>1&#45;&gt;0</title>
<path fill="none" stroke="red" d="M152.02,-541.04C157.11,-467.32 157.31,-190.46 152.62,-100.76"/>
<polygon fill="red" stroke="red" points="156.1,-100.31 152.01,-90.54 149.11,-100.73 156.1,-100.31"/>
<text text-anchor="middle" x="135.49" y="-304.66" font-family="Times,serif" font-size="14.00">0.068</text>
</g>
<!-- 1&#45;&gt;2 -->
<g id="edge4" class="edge">
<title>1&#45;&gt;2</title>
<path fill="none" stroke="red" d="M177.03,-547.2C253.16,-508.19 464.42,-386.32 541.86,-336.86"/>
<polygon fill="red" stroke="red" points="544.12,-339.57 550.62,-331.2 540.32,-333.69 544.12,-339.57"/>
<text text-anchor="middle" x="344.78" y="-446.1" font-family="Times,serif" font-size="14.00">0.073</text>
</g>
<!-- 2&#45;&gt;0 -->
<g id="edge5" class="edge">
<title>2&#45;&gt;0</title>
<path fill="none" stroke="red" d="M550.58,-300.53C484.18,-257.02 272.03,-134.26 185.99,-89.19"/>
<polygon fill="red" stroke="red" points="187.59,-86.08 177.1,-84.59 184.36,-92.3 187.59,-86.08"/>
<text text-anchor="middle" x="345" y="-178.38" font-family="Times,serif" font-size="14.00">0.079</text>
</g>
<!-- 2&#45;&gt;1 -->
<g id="edge6" class="edge">
<title>2&#45;&gt;1</title>
<path fill="none" stroke="red" d="M542.97,-327.91C466.84,-366.92 255.58,-488.79 178.14,-538.25"/>
<polygon fill="red" stroke="red" points="175.88,-535.54 169.38,-543.91 179.68,-541.42 175.88,-535.54"/>
<text text-anchor="middle" x="334.22" y="-421.61" font-family="Times,serif" font-size="14.00">0.085</text>
</g>
</g>
</svg>